HIERARCHY
ROOT Hips
{
	OFFSET 0.00000 0.00000 0.00000
	CHANNELS 6 Xposition Yposition Zposition Zrotation Yrotation Xrotation 
	JOINT LHipJoint
	{
		OFFSET 0 0 0
		CHANNELS 3 Zrotation Yrotation Xrotation
		JOINT LeftHip
		{
			OFFSET 1.28858 -1.83292 1.03970
			CHANNELS 3 Zrotation Yrotation Xrotation
			JOINT LeftKnee
			{
				OFFSET 2.47846 -6.80952 0.00000
				CHANNELS 3 Zrotation Yrotation Xrotation
				JOINT LeftAnkle
				{
					OFFSET 2.75274 -7.56311 0.00000
					CHANNELS 3 Zrotation Yrotation Xrotation
					JOINT LeftToe
					{
						OFFSET 0.12848 -0.35301 1.68223
						CHANNELS 3 Zrotation Yrotation Xrotation
						End Site
						{
							OFFSET 0.00000 -0.00000 0.87311
						}
					}
				}
			}
		}
	}
	JOINT RHipJoint
	{
		OFFSET 0 0 0
		CHANNELS 3 Zrotation Yrotation Xrotation
		JOINT RightHip
		{
			OFFSET -1.31183 -1.83292 1.03970
			CHANNELS 3 Zrotation Yrotation Xrotation
			JOINT RightKnee
			{
				OFFSET -2.44740 -6.72417 0.00000
				CHANNELS 3 Zrotation Yrotation Xrotation
				JOINT RightAnkle
				{
					OFFSET -2.67343 -7.34519 0.00000
					CHANNELS 3 Zrotation Yrotation Xrotation
					JOINT RightToe
					{
						OFFSET -0.16914 -0.46471 1.77626
						CHANNELS 3 Zrotation Yrotation Xrotation
						End Site
						{
							OFFSET -0.00000 -0.00000 0.92777
						}
					}
				}
			}
		}
	}
	JOINT lowerback
	{
		OFFSET 0 0 0
		CHANNELS 3 Zrotation Yrotation Xrotation
		JOINT Chest
		{
			OFFSET 0.01249 2.14252 0.03842
			CHANNELS 3 Zrotation Yrotation Xrotation
			JOINT Chest2
			{
				OFFSET -0.02957 2.14199 -0.03751
				CHANNELS 3 Zrotation Yrotation Xrotation
				JOINT lowerneck
				{
					OFFSET 0 0 0
					CHANNELS 3 Zrotation Yrotation Xrotation
					JOINT Neck
					{
						OFFSET -0.01678 1.65709 -0.05476
						CHANNELS 3 Zrotation Yrotation Xrotation
						JOINT Head
						{
							OFFSET 0.07912 1.58331 -0.11843
							CHANNELS 3 Zrotation Yrotation Xrotation
							End Site
							{
								OFFSET 0.03298 1.73940 -0.04271
							}
						}
					}
				}
				JOINT LeftCollar
				{
					OFFSET 0 0 0
					CHANNELS 3 Zrotation Yrotation Xrotation
					JOINT LeftShoulder
					{
						OFFSET 3.39556 1.16496 0.08673
CHANNELS 3 Zrotation Xrotation Yrotation
						JOINT LeftElbow
						{
OFFSET 0 -5.239100 -0.000000
CHANNELS 3 Zrotation Xrotation Yrotation
							JOINT LeftWrist
							{
OFFSET 0 -3.314670 0.000000
CHANNELS 3 Zrotation Xrotation Yrotation
								JOINT lhand
								{
									OFFSET 0 0 0
CHANNELS 3 Zrotation Xrotation Yrotation
									JOINT LFingers
									{
OFFSET 0 -0.965900 0.000000
CHANNELS 3 Zrotation Xrotation Yrotation
										End Site
										{
OFFSET 0 -0.778730 0.000000
										}
									}
								}
								JOINT LThumb
								{
OFFSET 0 0.000000 0.000000
CHANNELS 3 Zrotation Xrotation Yrotation
									End Site
									{
OFFSET 0 -0.790620 0.790620
									}
								}
							}
						}
					}
				}
				JOINT RightCollar
				{
					OFFSET 0 0 0
					CHANNELS 3 Zrotation Yrotation Xrotation
					JOINT RightShoulder
					{
						OFFSET -3.27193 1.31331 0.33940
CHANNELS 3 Zrotation Xrotation Yrotation
						JOINT RightElbow
						{
OFFSET 0 -5.302520 0.000000
CHANNELS 3 Zrotation Xrotation Yrotation
							JOINT RightWrist
							{
OFFSET 0 -3.678750 0.000000
CHANNELS 3 Zrotation Xrotation Yrotation
								JOINT rhand
								{
									OFFSET 0 0 0
CHANNELS 3 Zrotation Xrotation Yrotation
									JOINT RFingers
									{
OFFSET 0 -0.594810 0.000000
CHANNELS 3 Zrotation Xrotation Yrotation
										End Site
										{
OFFSET 0 -0.479550 0.000000
										}
									}
								}
								JOINT RThumb
								{
OFFSET 0 0.000000 0.000000
CHANNELS 3 Zrotation Xrotation Yrotation
									End Site
									{
OFFSET 0 -0.486870 0.486870
									}
								}
							}
						}
					}
				}
			}
		}
	}
}
MOTION
Frames: 9
Frame Time: 0.008333333333333333
8.493400 18.146600 -31.576700 -1.594500 25.259800 4.813000 0.000000 0.000000 0.000000 -15.585300 0.412000 2.947300 0.015000 0.789700 2.170500 1.267700 -3.868900 -20.358700 2.222900 9.315600 26.787700 0.000000 0.000000 0.000000 14.491700 7.638100 0.420100 -0.000100 0.052000 -0.143000 -1.166900 -22.698500 -38.503300 -1.627500 -8.042800 22.844200 -1.204300 -0.690800 -7.721000 -0.445300 -0.789200 -0.038300 0.126400 -0.410300 4.301800 -1.701100 -4.890200 0.326400 6.295600 -6.613300 1.568500 2.215100 -3.280300 0.721400 -0.000000 0.000000 0.000000 7.789300 0.161300 -37.063300 10.654700 -17.757000 1.669100 12.511500 -11.879900 11.883500 0.000000 0.000000 0.000000 -7.125000 0.000000 0.000000 -10.230500 17.928000 -6.692400 -0.000000 0.000000 0.000000 -4.344300 9.843000 21.414900 -14.893500 -23.997600 -3.182500 -11.497300 5.592800 36.362000 0.000000 0.000000 0.000000 7.125000 0.000000 -0.000000 28.452300 64.725100 -14.113900
8.498809 18.146536 -31.579363 -1.363075 25.290384 4.957350 0.000000 0.000000 0.000000 -15.894200 0.273745 2.972559 0.013302 0.744150 2.044986 1.264040 -3.940019 -20.317823 2.460867 9.766342 28.223379 0.000000 0.000000 0.000000 14.136770 7.120023 0.124048 0.000000 0.008396 -0.023026 -1.030360 -22.695121 -37.817874 -1.577278 -7.923466 22.482018 -1.452512 -0.707689 -7.897107 -0.434654 -0.785676 0.026630 0.274560 -0.414895 4.472016 -1.757384 -4.910129 0.345901 6.293433 -6.635185 1.473949 2.225759 -3.293562 0.691338 0.000000 0.000000 0.000000 7.664671 0.042894 -37.148255 10.682200 -17.799492 1.677489 12.735206 -11.875634 11.703002 0.000000 0.000000 0.000000 -7.125000 0.000000 0.000000 -10.079839 18.096300 -6.552675 0.000000 0.000000 0.000000 -4.424569 9.761629 21.187517 -14.925625 -24.042415 -3.195589 -10.783927 5.941811 36.745279 0.000000 0.000000 0.000000 7.125000 0.000000 0.000000 29.677274 64.853939 -14.859742
8.498003 18.145924 -31.580174 -1.384547 25.293917 4.986002 0.000000 0.000000 0.000000 -15.889224 0.153094 2.949017 0.014185 0.770251 2.116765 1.282430 -3.806705 -20.490694 2.373359 9.603970 27.703503 0.000000 0.000000 0.000000 14.147223 7.078292 0.055657 0.000000 -0.007308 0.020073 -1.019752 -22.713498 -37.784828 -1.507084 -7.753408 21.967568 -1.364085 -0.666682 -7.863929 -0.497200 -0.737454 -0.035686 0.166579 -0.387717 4.385781 -1.622907 -4.942038 0.403586 6.278405 -6.678016 1.490252 2.197966 -3.314866 0.682839 0.000000 0.000000 0.000000 7.805055 0.116401 -37.360547 10.717862 -17.854577 1.688396 12.733795 -12.106922 11.681603 0.000000 0.000000 0.000000 -7.125000 0.000000 0.000000 -10.081418 18.117940 -6.548767 0.000000 0.000000 0.000000 -4.287206 9.849553 21.093647 -14.909176 -24.019486 -3.188913 -10.708469 5.934414 36.743599 0.000000 0.000000 0.000000 7.125000 0.000000 0.000000 29.755589 64.831553 -14.886948
8.497385 18.149036 -31.578149 -1.292131 25.232976 4.936788 0.000000 0.000000 0.000000 -16.017976 0.171325 3.098824 0.013584 0.752711 2.068702 1.294680 -3.887742 -20.579382 2.580191 9.979703 28.913241 0.000000 0.000000 0.000000 14.066281 7.067888 0.154488 -0.000052 0.007562 -0.020901 -0.980770 -22.784285 -37.662121 -1.490355 -7.711515 21.841659 -1.412704 -0.624794 -7.794715 -0.554969 -0.675659 -0.001158 0.141736 -0.357692 4.381773 -1.580730 -4.976296 0.341224 6.273182 -6.725326 1.519720 2.186240 -3.336679 0.703048 0.000000 0.000000 0.000000 7.874010 0.068412 -37.417405 10.732099 -17.876489 1.692756 12.666274 -12.205877 11.660308 0.000000 0.000000 0.000000 -7.125000 0.000000 0.000000 -10.129012 18.143359 -6.574880 0.000000 0.000000 0.000000 -4.226435 9.812881 20.852885 -15.167361 -24.378132 -3.295064 -7.925751 5.748308 40.079829 0.000000 0.000000 0.000000 7.125000 0.000000 0.000000 37.460187 66.655005 -20.931987
8.502267 18.147812 -31.584352 -1.313137 25.032894 4.924764 0.000000 0.000000 0.000000 -16.104629 0.051899 3.207877 0.012218 0.713268 1.960166 1.331810 -3.818071 -20.895556 2.790607 10.347973 30.111317 0.000000 0.000000 0.000000 13.985069 6.675694 -0.173164 -0.000194 -0.083496 0.229315 -0.884256 -22.589115 -36.949716 -1.419305 -7.534090 21.307675 -1.254294 -0.539883 -7.822075 -0.588379 -0.574668 0.030356 0.029259 -0.304283 4.426561 -1.692598 -4.966362 0.433458 6.445242 -6.705580 1.337515 2.267124 -3.331228 0.640384 0.000000 0.000000 0.000000 7.895975 -0.027363 -37.446351 10.722545 -17.861769 1.689815 12.715865 -12.288913 11.839054 0.000000 0.000000 0.000000 -7.125000 0.000000 0.000000 -10.089803 17.960524 -6.590002 0.000000 0.000000 0.000000 -4.237644 9.748730 20.772024 -15.356181 -24.639993 -3.373010 -5.905282 5.472470 42.339225 0.000000 0.000000 0.000000 7.125000 0.000000 0.000000 43.035218 67.779305 -25.343875
8.499784 18.148470 -31.586556 -1.389224 25.019539 4.907360 0.000000 0.000000 0.000000 -16.018018 -0.017565 3.186083 0.012931 0.734734 2.019169 1.346868 -3.749193 -21.028546 2.723946 10.234096 29.738170 0.000000 0.000000 0.000000 14.077272 6.729449 -0.189024 -0.000200 -0.097030 0.266610 -0.916557 -22.535517 -37.057725 -1.448211 -7.607119 21.526989 -1.240599 -0.544899 -7.809690 -0.521022 -0.586057 0.025939 0.090119 -0.310333 4.415665 -1.673823 -4.980865 0.348099 6.337235 -6.728549 1.438616 2.224675 -3.340050 0.682617 0.000000 0.000000 0.000000 7.823294 -0.061020 -37.362029 10.723127 -17.862630 1.690047 12.665782 -12.145218 11.875834 0.000000 0.000000 0.000000 -7.125000 0.000000 0.000000 -10.123647 17.926468 -6.620552 0.000000 0.000000 0.000000 -4.360825 9.739053 20.959870 -15.337813 -24.614613 -3.365414 -5.904728 5.315826 42.224697 0.000000 0.000000 0.000000 7.125000 0.000000 0.000000 42.833695 67.698160 -25.133042
8.500541 18.149282 -31.588473 -1.288662 25.021798 4.950658 0.000000 0.000000 0.000000 -16.145762 -0.054528 3.190303 0.012818 0.731182 2.009330 1.347558 -3.788661 -21.028240 2.726978 10.239299 29.755331 0.000000 0.000000 0.000000 13.936588 6.644076 -0.243141 -0.000200 -0.091828 0.252276 -0.908194 -22.496174 -36.969974 -1.474018 -7.671696 21.721371 -1.324639 -0.530160 -7.807257 -0.533462 -0.558174 0.031257 0.127656 -0.298215 4.420274 -1.682416 -5.021625 0.254597 6.291831 -6.789831 1.583524 2.206051 -3.366895 0.745226 0.000000 0.000000 0.000000 7.831355 -0.113426 -37.521463 10.735913 -17.882352 1.693951 12.734808 -12.205910 11.761778 0.000000 0.000000 0.000000 -7.125000 0.000000 0.000000 -10.078604 18.037147 -6.565086 0.000000 0.000000 0.000000 -4.418986 9.652661 20.972579 -15.256291 -24.501923 -3.331518 -6.001960 5.462976 41.975425 0.000000 0.000000 0.000000 7.125000 0.000000 0.000000 42.303574 67.550873 -24.643208
8.499795 18.148787 -31.587063 -1.272282 25.033469 4.942509 0.000000 0.000000 0.000000 -16.159280 -0.031977 3.210994 0.012445 0.720408 1.979821 1.344521 -3.799216 -21.001915 2.728129 10.241117 29.761294 0.000000 0.000000 0.000000 13.927394 6.675298 -0.219009 -0.000200 -0.087311 0.239882 -0.903948 -22.536238 -36.992914 -1.439512 -7.585089 21.460887 -1.264865 -0.533722 -7.725384 -0.580162 -0.568254 -0.024108 0.045686 -0.300750 4.315710 -1.654708 -5.067283 0.328122 6.318091 -6.849931 1.558373 2.211465 -3.398208 0.727500 0.000000 0.000000 0.000000 7.944646 -0.010971 -37.685212 10.778361 -17.947703 1.706961 13.028438 -12.427428 11.885272 0.000000 0.000000 0.000000 -7.125000 0.000000 0.000000 -9.871582 17.894909 -6.457402 0.000000 0.000000 0.000000 -4.394982 9.681047 20.936208 -15.252622 -24.496870 -3.330016 -6.165737 5.990680 41.359030 0.000000 0.000000 0.000000 7.125000 0.000000 0.000000 41.095870 67.155966 -23.489875
8.498800 18.148494 -31.586870 -1.381045 25.073437 4.867168 0.000000 0.000000 0.000000 -16.026884 0.042691 3.230082 0.012500 0.722464 1.985586 1.336373 -3.762676 -20.940917 2.660772 10.124455 29.380685 0.000000 0.000000 0.000000 14.063216 6.634905 -0.175122 -0.000200 -0.089802 0.246870 -0.919823 -22.476250 -37.008110 -1.429491 -7.559866 21.385093 -1.090927 -0.525138 -7.663594 -0.603494 -0.572593 -0.047782 -0.075920 -0.298763 4.254380 -1.764304 -5.039636 0.318414 6.478259 -6.823215 1.699772 2.281210 -3.381887 0.783331 0.000000 0.000000 0.000000 8.045430 0.013580 -37.706023 10.768899 -17.933132 1.704046 13.099282 -12.506923 12.169502 0.000000 0.000000 0.000000 -7.125000 0.000000 0.000000 -9.816130 17.604064 -6.483962 0.000000 0.000000 0.000000 -4.312022 9.745605 20.864200 -15.296299 -24.557235 -3.348071 -5.988163 6.081212 41.432693 0.000000 0.000000 0.000000 7.125000 0.000000 0.000000 41.394393 67.155707 -23.683901
